<?xml version="1.0" encoding="UTF-8" standalone="no"?>
<svg
   width="62"
   height="62"
   viewBox="0 0 62 62"
   fill="none"
   version="1.1"
   id="svg849"
   sodipodi:docname="xls.svg"
   inkscape:version="1.1.1 (c3084ef, 2021-09-22)"
   xmlns:inkscape="http://www.inkscape.org/namespaces/inkscape"
   xmlns:sodipodi="http://sodipodi.sourceforge.net/DTD/sodipodi-0.dtd"
   xmlns="http://www.w3.org/2000/svg"
   xmlns:svg="http://www.w3.org/2000/svg">
  <defs
     id="defs15" />
  <sodipodi:namedview
     id="namedview13"
     pagecolor="#ffffff"
     bordercolor="#666666"
     borderopacity="1.0"
     inkscape:pageshadow="2"
     inkscape:pageopacity="0.0"
     inkscape:pagecheckerboard="0"
     showgrid="false"
     inkscape:zoom="14.080645"
     inkscape:cx="30.96449"
     inkscape:cy="31"
     inkscape:window-width="1973"
     inkscape:window-height="1097"
     inkscape:window-x="0"
     inkscape:window-y="25"
     inkscape:window-maximized="0"
     inkscape:current-layer="svg849" />
  <path
     d="M15.5 0C13.3687 0 11.625 1.74375 11.625 3.875V58.125C11.625 60.2562 13.3687 62 15.5 62H54.25C56.3812 62 58.125 60.2562 58.125 58.125V15.5L42.625 0H15.5Z"
     fill="#E2E5E7"
     id="path833" />
  <path
     d="M46.5 15.5H58.125L42.625 0V11.625C42.625 13.7563 44.3687 15.5 46.5 15.5Z"
     fill="#B0B7BD"
     id="path835" />
  <path
     d="M58.125 27.125L46.5 15.5H58.125V27.125Z"
     fill="#CAD1D8"
     id="path837" />
  <path
     d="M50.375 50.375C50.375 51.4406 49.5031 52.3125 48.4375 52.3125H5.8125C4.74687 52.3125 3.875 51.4406 3.875 50.375V31C3.875 29.9344 4.74687 29.0625 5.8125 29.0625H48.4375C49.5031 29.0625 50.375 29.9344 50.375 31V50.375Z"
     fill="#50BEE8"
     id="path839"
     style="fill:#6bcd84;fill-opacity:1" />
  <path
     d="M48.4375 52.3125H11.625V54.25H48.4375C49.5031 54.25 50.375 53.3781 50.375 52.3125V50.375C50.375 51.4406 49.5031 52.3125 48.4375 52.3125Z"
     fill="#CAD1D8"
     id="path847" />
  <g
     id="g126"
     transform="translate(4.5085911)">
    <path
       d="m 9.5533967,46.57549 q 0.2713667,0 0.4419401,-0.101752 0.1783272,-0.101752 0.3644072,-0.356131 l 2.698161,-3.568581 h 0.05428 l 2.705915,3.575849 q 0.18608,0.239843 0.372159,0.341595 0.193834,0.10902 0.457448,0.10902 0.395419,0 0.666786,-0.232576 0.271367,-0.232575 0.271367,-0.581438 0,-0.167164 -0.06202,-0.319792 -0.05428,-0.152627 -0.178326,-0.305255 L 14.321705,41.24079 v -0.04361 l 3.116834,-3.975588 q 0.131808,-0.159896 0.186081,-0.305256 0.05428,-0.14536 0.05428,-0.305255 0,-0.319791 -0.27912,-0.545098 -0.271366,-0.225308 -0.651281,-0.225308 -0.271366,0 -0.44194,0.10902 -0.162819,0.101751 -0.3489,0.348863 l -2.705914,3.641259 h -0.06202 l -2.636148,-3.59038 Q 10.35199,36.073254 10.150404,35.956966 9.9565702,35.840678 9.6852033,35.840678 q -0.4109267,0 -0.6900469,0.239843 -0.2791201,0.239844 -0.2791201,0.603243 0,0.159896 0.054273,0.312523 0.054273,0.152628 0.2015867,0.334327 l 2.938515,3.815692 v 0.05088 L 8.8866096,45.18004 q -0.1318068,0.159895 -0.1938335,0.312524 -0.054273,0.152627 -0.054273,0.305255 0,0.319791 0.2636135,0.552366 0.2713668,0.225308 0.6512803,0.225308 z"
       style="font-size:15.3738px;line-height:1.25;font-family:'.SF NS Rounded';-inkscape-font-specification:'.SF NS Rounded, @GRAD=400,wght=563';font-variation-settings:'GRAD' 400, 'wght' 563;fill:#ffffff;stroke-width:1.15304"
       id="path15" />
    <path
       d="m 20.3693,46.451934 h 5.326542 q 0.395421,0 0.635774,-0.203504 0.240354,-0.210771 0.240354,-0.559635 0,-0.348862 -0.240354,-0.552366 -0.240353,-0.210771 -0.635774,-0.210771 h -4.372881 v -8.154679 q 0,-0.436078 -0.25586,-0.68319 -0.248107,-0.247111 -0.697801,-0.247111 -0.44194,0 -0.697799,0.247111 -0.255861,0.247112 -0.255861,0.68319 v 8.750653 q 0,0.436079 0.255861,0.683191 0.255859,0.247111 0.697799,0.247111 z"
       style="font-size:15.3738px;line-height:1.25;font-family:'.SF NS Rounded';-inkscape-font-specification:'.SF NS Rounded, @GRAD=400,wght=563';font-variation-settings:'GRAD' 400, 'wght' 563;fill:#ffffff;stroke-width:1.15304"
       id="path17" />
    <path
       d="m 31.813225,46.626366 q 1.333574,0 2.302742,-0.392471 0.969166,-0.39974 1.496393,-1.133806 0.53498,-0.734066 0.53498,-1.72978 0,-1.155609 -0.783086,-1.846068 -0.783088,-0.697727 -2.550848,-1.039321 l -1.209521,-0.239844 q -1.062207,-0.203503 -1.519653,-0.566902 -0.457448,-0.370668 -0.457448,-0.915766 0,-0.457884 0.279121,-0.784943 0.286873,-0.334327 0.775333,-0.508759 0.48846,-0.181699 1.124234,-0.181699 0.534981,0 0.976921,0.138091 0.44194,0.130824 0.76758,0.421544 0.333393,0.290719 0.519473,0.748602 0.147313,0.290719 0.364407,0.436079 0.224846,0.14536 0.55824,0.14536 0.372161,0 0.604761,-0.203504 0.2326,-0.203503 0.2326,-0.545099 0,-0.232576 -0.06978,-0.414275 -0.224846,-0.697726 -0.783086,-1.191949 -0.558241,-0.501491 -1.364587,-0.763139 -0.806348,-0.268915 -1.791021,-0.268915 -1.201767,0 -2.132168,0.385203 -0.930401,0.385203 -1.465381,1.08293 -0.527227,0.690458 -0.527227,1.606224 0,1.148342 0.798594,1.882408 0.798594,0.734066 2.473315,1.061125 l 1.209519,0.232576 q 1.100974,0.21804 1.566174,0.595974 0.472953,0.370668 0.472953,0.952106 0,0.443347 -0.30238,0.792211 -0.294627,0.348863 -0.821853,0.552367 -0.527227,0.196235 -1.217274,0.196235 -0.612514,0 -1.124234,-0.14536 -0.51172,-0.145359 -0.88388,-0.443346 -0.37216,-0.305256 -0.550487,-0.770406 -0.147313,-0.305256 -0.364407,-0.443348 -0.20934,-0.138092 -0.527226,-0.138092 -0.379915,0 -0.620267,0.225308 -0.232601,0.225307 -0.232601,0.61051 0,0.130825 0.02326,0.268916 0.03102,0.130824 0.07754,0.261647 0.217093,0.595975 0.775334,1.068394 0.55824,0.465151 1.403353,0.734066 0.852868,0.268916 1.961594,0.268916 z"
       style="font-size:15.3738px;line-height:1.25;font-family:'.SF NS Rounded';-inkscape-font-specification:'.SF NS Rounded, @GRAD=400,wght=563';font-variation-settings:'GRAD' 400, 'wght' 563;fill:#ffffff;stroke-width:1.15304"
       id="path19" />
  </g>
</svg>
