<?xml version="1.0" encoding="UTF-8" standalone="no"?>
<svg width="62" height="62" viewBox="0 0 62 62" fill="none" version="1.1" id="svg849" sodipodi:docname="xlsx-1.svg" inkscape:version="1.1.1 (c3084ef, 2021-09-22)" xmlns:inkscape="http://www.inkscape.org/namespaces/inkscape" xmlns:sodipodi="http://sodipodi.sourceforge.net/DTD/sodipodi-0.dtd" xmlns="http://www.w3.org/2000/svg" xmlns:svg="http://www.w3.org/2000/svg" xmlns:rdf="http://www.w3.org/1999/02/22-rdf-syntax-ns#" xmlns:cc="http://creativecommons.org/ns#" xmlns:dc="http://purl.org/dc/elements/1.1/">
    <path d="M15.5 0C13.3687 0 11.625 1.74375 11.625 3.875V58.125C11.625 60.2562 13.3687 62 15.5 62H54.25C56.3812 62 58.125 60.2562 58.125 58.125V15.5L42.625 0H15.5Z" fill="#E2E5E7" id="path833" />
    <path d="M46.5 15.5H58.125L42.625 0V11.625C42.625 13.7563 44.3687 15.5 46.5 15.5Z" fill="#B0B7BD" id="path835" />
    <path d="M58.125 27.125L46.5 15.5H58.125V27.125Z" fill="#CAD1D8" id="path837" />
    <path d="M50.375 50.375C50.375 51.4406 49.5031 52.3125 48.4375 52.3125H5.8125C4.74687 52.3125 3.875 51.4406 3.875 50.375V31C3.875 29.9344 4.74687 29.0625 5.8125 29.0625H48.4375C49.5031 29.0625 50.375 29.9344 50.375 31V50.375Z" fill="#50BEE8" id="path839" style="fill:#6bcd84;fill-opacity:1" />
    <path d="M48.4375 52.3125H11.625V54.25H48.4375C49.5031 54.25 50.375 53.3781 50.375 52.3125V50.375C50.375 51.4406 49.5031 52.3125 48.4375 52.3125Z" fill="#CAD1D8" id="path847" />
    <g aria-label="XLSX" transform="scale(1.0328502,0.9681946)" id="text861" style="font-size:15.3738px;line-height:1.25;fill:#ffffff;stroke-width:1.15304">
        <path d="m 9.2495472,48.105505 q 0.2627358,0 0.427884,-0.105095 0.172655,-0.105094 0.3528168,-0.36783 l 2.612345,-3.685809 h 0.05255 l 2.619852,3.693316 q 0.180162,0.247722 0.360323,0.352816 0.187669,0.112602 0.442898,0.112602 0.382843,0 0.645579,-0.240216 0.262736,-0.240216 0.262736,-0.600539 0,-0.172655 -0.06005,-0.330297 -0.05255,-0.157641 -0.172655,-0.315283 l -2.927628,-4.023611 v -0.04504 L 16.8839,38.444332 q 0.127615,-0.165148 0.180162,-0.315283 0.05255,-0.150135 0.05255,-0.315283 0,-0.330296 -0.270243,-0.563005 -0.262735,-0.232709 -0.630566,-0.232709 -0.262735,0 -0.427884,0.112601 -0.157641,0.105094 -0.337803,0.360323 l -2.619852,3.760876 h -0.06005 L 10.217916,37.543524 Q 10.022741,37.258268 9.827566,37.13816 9.6398976,37.018052 9.3771617,37.018052 q -0.3978571,0 -0.6680997,0.247722 -0.2702426,0.247723 -0.2702426,0.62306 0,0.165148 0.052547,0.322789 0.052547,0.157642 0.1951752,0.34531 l 2.8450542,3.941038 v 0.05255 l -2.9276283,4.113693 q -0.1276146,0.165148 -0.1876685,0.32279 -0.052547,0.157641 -0.052547,0.315283 0,0.330296 0.2552291,0.570512 0.2627359,0.232709 0.6305661,0.232709 z" style="font-family:'.SF NS Rounded';-inkscape-font-specification:'.SF NS Rounded, @GRAD=400,wght=563';font-variation-settings:'GRAD' 400, 'wght' 563" id="path15" />
        <path d="m 19.721447,47.97789 h 5.157129 q 0.382844,0 0.615553,-0.210189 0.232709,-0.217695 0.232709,-0.578019 0,-0.360323 -0.232709,-0.570512 -0.232709,-0.217695 -0.615553,-0.217695 h -4.2338 v -8.422561 q 0,-0.450404 -0.247722,-0.705633 -0.240216,-0.255229 -0.675607,-0.255229 -0.427884,0 -0.675606,0.255229 -0.247723,0.255229 -0.247723,0.705633 v 9.038113 q 0,0.450405 0.247723,0.705634 0.247722,0.255229 0.675606,0.255229 z" style="font-family:'.SF NS Rounded';-inkscape-font-specification:'.SF NS Rounded, @GRAD=400,wght=563';font-variation-settings:'GRAD' 400, 'wght' 563" id="path17" />
        <path d="m 30.801393,48.158052 q 1.291159,0 2.229502,-0.405364 0.938342,-0.412871 1.4488,-1.171051 0.517965,-0.758181 0.517965,-1.786604 0,-1.193571 -0.75818,-1.906712 -0.758181,-0.720647 -2.469717,-1.073463 l -1.171052,-0.247723 q -1.028423,-0.210188 -1.47132,-0.585525 -0.442898,-0.382844 -0.442898,-0.945849 0,-0.472925 0.270243,-0.810728 0.277749,-0.34531 0.750673,-0.525472 0.472925,-0.187668 1.088478,-0.187668 0.517965,0 0.945849,0.142628 0.427884,0.135121 0.743167,0.435391 0.322789,0.300269 0.502951,0.773194 0.142628,0.300269 0.352817,0.450404 0.217695,0.150135 0.540485,0.150135 0.360324,0 0.585526,-0.210189 0.225202,-0.210188 0.225202,-0.563005 0,-0.240216 -0.06756,-0.427884 -0.217695,-0.720647 -0.75818,-1.231105 -0.540486,-0.517965 -1.321186,-0.788208 -0.780701,-0.277749 -1.734057,-0.277749 -1.163544,0 -2.064353,0.397857 -0.900809,0.397857 -1.418774,1.118504 -0.510458,0.71314 -0.510458,1.658989 0,1.186065 0.773194,1.944245 0.773194,0.758181 2.39465,1.095984 L 31.15421,43.4213 q 1.065957,0.225202 1.516361,0.615552 0.457911,0.382844 0.457911,0.983383 0,0.457911 -0.292763,0.818235 -0.285256,0.360323 -0.795714,0.570512 -0.510458,0.202682 -1.178558,0.202682 -0.593032,0 -1.088477,-0.150135 -0.495445,-0.150135 -0.855768,-0.457911 -0.360323,-0.315283 -0.532978,-0.795714 -0.142628,-0.315283 -0.352817,-0.457912 -0.202682,-0.142628 -0.510458,-0.142628 -0.367831,0 -0.600539,0.232709 -0.225203,0.232709 -0.225203,0.630566 0,0.135122 0.02252,0.27775 0.03003,0.135121 0.07507,0.270242 0.210189,0.615553 0.750674,1.103491 0.540485,0.480431 1.358719,0.75818 0.825742,0.27775 1.899205,0.27775 z" style="font-family:'.SF NS Rounded';-inkscape-font-specification:'.SF NS Rounded, @GRAD=400,wght=563';font-variation-settings:'GRAD' 400, 'wght' 563" id="path19" />
        <path d="m 36.994453,48.105505 q 0.262735,0 0.427884,-0.105095 0.172655,-0.105094 0.352816,-0.36783 l 2.612345,-3.685809 h 0.05255 l 2.619851,3.693316 q 0.180162,0.247722 0.360324,0.352816 0.187668,0.112602 0.442897,0.112602 0.382844,0 0.64558,-0.240216 0.262736,-0.240216 0.262736,-0.600539 0,-0.172655 -0.06005,-0.330297 -0.05255,-0.157641 -0.172655,-0.315283 l -2.927628,-4.023611 v -0.04504 l 3.017709,-4.106186 q 0.127614,-0.165148 0.180161,-0.315283 0.05255,-0.150135 0.05255,-0.315283 0,-0.330296 -0.270242,-0.563005 -0.262736,-0.232709 -0.630566,-0.232709 -0.262736,0 -0.427884,0.112601 -0.157642,0.105094 -0.337803,0.360323 l -2.619852,3.760876 h -0.06005 l -2.552291,-3.708328 q -0.195175,-0.285256 -0.390351,-0.405364 -0.187668,-0.120108 -0.450404,-0.120108 -0.397857,0 -0.6681,0.247722 -0.270242,0.247723 -0.270242,0.62306 0,0.165148 0.05255,0.322789 0.05255,0.157642 0.195175,0.34531 l 2.845054,3.941038 v 0.05255 l -2.927628,4.113693 q -0.127614,0.165148 -0.187668,0.32279 -0.05255,0.157641 -0.05255,0.315283 0,0.330296 0.25523,0.570512 0.262735,0.232709 0.630566,0.232709 z" style="font-family:'.SF NS Rounded';-inkscape-font-specification:'.SF NS Rounded, @GRAD=400,wght=563';font-variation-settings:'GRAD' 400, 'wght' 563" id="path21" />
    </g>
</svg>
